PathFileType	4	(X/Y/Z)	C:/Users/beibeiliu/ov580/test_trc\sequence.22_training_dense_left.trc
DataRate	CameraRate	NumFrames	NumMarkers	Units	OrigDataRate	OrigDataStartFrame	OrigNumFrames
120	120	8	19	mm	120	244	324
Frame#	Time	ThumbCMC			ThumbMCP			ThumbIP			ThumbTip			IndexMCP			IndexPIP			IndexTip			MiddleMCP			MiddlePIP			MiddleTip			RingMCP			RingPIP			RingTip			PinkyMCP			PinkyPIP			PinkyTip			BackHand1			BackHand2			BackHand3	
		X0	Y0	Z0	X1	Y1	Z1	X2	Y2	Z2	X3	Y3	Z3	X4	Y4	Z4	X5	Y5	Z5	X6	Y6	Z6	X7	Y7	Z7	X8	Y8	Z8	X9	Y9	Z9	X10	Y10	Z10	X11	Y11	Z11	X12	Y12	Z12	X13	Y13	Z13	X14	Y14	Z14	X15	Y15	Z15	X16	Y16	Z16	X17	Y17	Z17	X18	Y18	Z18	
243	2.025	-251.625	78.9959	21.6322	-238.071	80.1709	-7.26807	-235.574	82.9096	-30.8635	-229.945	86.9772	-49.7675	-287.063	94.3137	-32.2728	-280.917	95.4097	-54.3022	-268.837	97.7297	-76.6939	-279.785	74.0793	-40.4005	-252.429	66.4058	-45.2128	-249.103	61.4039	-12.7601	-278.43	52.6826	-35.6637	-251.555	55.684	-34.1453	-254.951	53.0053	-2.03777	-274.575	38.9796	-33.01	-252.405	41.5434	-25.4309	-258.669	45.8814	-1.1484	-295.281	52.195	7.41564	-286.309	44.8836	34.8873	-286.86	68.1836	27.0143	
244	2.03333	-254.859	81.6642	17.7247	-236.146	83.3174	-5.88157	-231.083	83.6734	-27.7816	-223.198	86.854	-50.8365	-281.903	94.5247	-36.7445	-274.389	93.6605	-59.1136	-258.368	96.1305	-79.3351	-275.49	73.2661	-45.4325	-248.749	63.0863	-46.436	-247.204	62.4524	-13.5476	-272.291	54.6215	-39.5647	-245.889	54.5574	-28.8815	-254.199	53.4385	-2.04916	-272.736	37.3626	-32.8578	-249.744	39.4917	-24.7319	-257.552	48.0098	0.62321	-296.491	49.9204	4.6985	-292.651	48.5167	29.1821	-286.25	76.8032	23.4238	
245	2.04167	-258.466	87.3024	18.9711	-236.25	86.8567	-9.72395	-226.98	85.9886	-25.8408	-218.628	84.1054	-43.4611	-276.415	91.5509	-45.6364	-263.953	90.3214	-65.0694	-248.122	90.5897	-83.1613	-272.114	71.7647	-46.3368	-243.599	62.2358	-46.2401	-246.734	62.6419	-13.0545	-266.736	54.0858	-41.8797	-242.94	52.2273	-27.2827	-252.271	54.9071	-3.41893	-269.356	34.0975	-32.3818	-247.526	42.4818	-22.5638	-257.616	51.7886	1.34974	-298.187	53.7045	-3.28666	-296.182	52.4998	25.3686	-292.046	80.1017	15.9555	
246	2.05	-261.153	91.0394	14.8206	-238.449	87.5209	-9.1455	-227.842	85.7098	-22.5856	-215.854	84.4671	-40.1686	-272.835	89.258	-50.5092	-258.236	88.2655	-69.066	-241.223	82.5178	-83.0875	-267.329	69.1471	-49.7945	-237.972	63.2905	-41.8921	-243.679	68.2761	-13.222	-264.741	47.3614	-41.5575	-240.648	56.1078	-25.8844	-255.221	57.4856	-1.86474	-263.094	36.607	-32.3989	-245.763	45.5322	-17.1329	-257.431	53.0241	-0.86043	-298.653	56.0258	-7.87944	-299.03	53.3781	23.6487	-295.559	80.0437	6.85723	
247	2.05833	-266.86	89.8116	13.7542	-242.501	85.5911	-3.54409	-227.847	87.3462	-23.9312	-215.568	85.7769	-36.1019	-272.272	92.3608	-50.6707	-256.397	88.2565	-67.8825	-236.809	85.5804	-80.7997	-264.203	68.1318	-49.8563	-236.776	64.8664	-42.0368	-248.255	69.019	-10.2401	-262.518	48.2169	-40.6714	-239.834	51.4619	-22.2709	-257.553	58.5055	-0.29823	-262.911	33.7171	-30.8563	-245.945	45.5988	-16.381	-260.409	57.0453	0.75041	-300.022	50.8553	-9.91115	-303.783	53.4095	18.7662	-299.631	77.4163	8.40722	
248	2.06667	-269.425	92.0662	14.1117	-244.611	88.2235	-1.57851	-229.111	87.9083	-17.3458	-214.266	85.7384	-34.2601	-273.025	87.5054	-48.8474	-254.007	87.0225	-66.8955	-233.39	80.8388	-78.2718	-264.413	64.1467	-48.9418	-234.865	65.9339	-37.9891	-245.704	69.1131	-9.85697	-261.684	49.124	-39.3078	-240.556	55.3554	-21.9842	-255.768	61.5077	-0.782509	-263.537	33.3343	-29.4507	-246.857	43.4476	-13.4572	-265.521	53.4929	4.99748	-299.95	52.6291	-11.2785	-307.929	54.3008	17.3955	-300.133	76.6856	6.07795	
249	2.075	-272.766	91.4266	12.0333	-245.835	88.761	-1.11105	-227.78	87.9474	-18.6678	-212.684	87.1264	-28.1985	-269.391	85.4493	-52.5192	-252.284	84.1732	-64.2558	-229.74	81.8773	-73.569	-263.15	63.8997	-47.1973	-235.397	61.202	-37.2399	-249.717	65.136	-7.31034	-259.479	46.5198	-37.7978	-240.327	53.2974	-16.8814	-262.237	59.4359	1.45048	-260.655	33.0433	-28.9112	-245.906	40.3651	-10.6472	-264.592	51.3293	6.3414	-302.783	46.6075	-12.3256	-307.916	52.0793	15.9887	-304.11	77.9636	4.59806	
250	2.08333	-277.123	86.9059	11.5816	-246.084	88.7421	0.702644	-228.686	86.7806	-15.0011	-214.726	86.0419	-23.1912	-268.626	87.3484	-50.6265	-250.248	80.0728	-63.2772	-222.887	77.5522	-73.0455	-257.372	61.1276	-48.1595	-234.199	62.9273	-32.6227	-248.979	64.5589	-5.62394	-258.615	47.2854	-36.031	-240.814	48.6264	-14.621	-259.953	57.4691	2.38409	-262.017	32.0949	-27.075	-247.395	40.1278	-7.76184	-265.198	50.3478	6.52943	-303.115	49.696	-12.5265	-310.593	51.1759	14.6853	-304.896	73.8708	2.3929	
